{"title":"The Holding (2011) DvDSCR DD2.0 NL Subs EE-Rel.NL","uid":6700714,"size":4649454568,"categoryP":"video","categoryS":"movies_dvdr","magnet":"?xt=urn:btih:c870988d24616c958a4756ef3ea86c9b04549f17&amp;dn=The+Holding+%282011%29+DvDSCR+DD2.0+NL+Subs+EE-Rel.NL&amp;tr=udp%3A%2F%2Ftracker.openbittorrent.com%3A80&amp;tr=udp%3A%2F%2Fopen.demonii.com%3A1337&amp;tr=udp%3A%2F%2Ftracker.coppersurfer.tk%3A6969&amp;tr=udp%3A%2F%2Fexodus.desync.com%3A6969","seeders":0,"leechers":0,"uploader":"NLUPPER002","files":-1,"time":1316960985,"description":"The Holding (2011) DvDSCR DD2.0 NL Subs EE-Rel.NL\n.\n[IMG]http://img27.imageshack.us/img27/1082/71787.jpg[/IMG]\n.\nVerenigd Koninkrijk\nThriller\n95 minuten\n\ngeregisseerd door Susan Jacobson\nmet Kierston Wareing, Vincent Regan en David Bradley\n\nCassie Naylor heeft een gruwelijk geheim. Acht maanden geleden doodde ze haar man toen ze ontdekte dat hij hun tienerdochter misbruikte. Nu ze de boerderij alleen runt samen met haar twee dochters dreigt ze financiÃƒâ„¢el ten onder te gaan. Ze probeert er alles aan te doen om haar huis en haar gezin bij elkaar te houden. Op een dag arriveert er een charismatische vreemdeling op de boerderij die zich in het leven van Cassie praat. Maar naarmate de tijd verstrijkt wordt het duidelijk dat hij een gezin voor zichzelf wil...hij wil haar gezin.\n. &lt;a href=&quot;\nhttp://www.moviemeter.nl/film/71787&quot; rel=&quot;nofollow&quot; target=&quot;_NEW&quot;&gt;\nhttp://www.moviemeter.nl/film/71787&lt;/a&gt;\n.\nPLOT\n.\nA heart-pounding suspense thriller, set on an isolated farm in England\\'s beautiful, rugged Peak District. \n. &lt;a href=&quot;\nhttp://www.imdb.com/title/tt1582621/&quot; rel=&quot;nofollow&quot; target=&quot;_NEW&quot;&gt;\nhttp://www.imdb.com/title/tt1582621/&lt;/a&gt;\n.\nINFO\n.\nSOURCE:..........: NoGRP@3pass to DvD5\nVideo:..........: NTSC\nAudio:..........: DD2.0\nSubs..........: Dutch By:Erik and Ed.\n*************************************************************\nFormat                           : MPEG Video\nFormat version                   : Version 2\nFormat profile                   : Main@Main\nFormat settings, BVOP            : Yes\nFormat settings, Matrix          : Default\nFormat settings, GOP             : M=3, N=18\nDuration                         : 1h 28mn\nBit rate mode                    : Constant\nBit rate                         : 6 628 Kbps\nWidth                            : 720 pixels\nHeight                           : 480 pixels\nDisplay aspect ratio             : 16:9\nFrame rate                       : 29.970 fps\nStandard                         : NTSC\nColor space                      : YUV\nChroma subsampling               : 4:2:0\nBit depth                        : 8 bits\nScan type                        : Progressive\nBits/(Pixel*Frame)               : 0.640\nStream size                      : 4.09 GiB (95%)\n*************************************************************\nAudio\nID                               : 128 (0x80)\nFormat                           : AC-3\nFormat/Info                      : Audio Coding 3\nMode extension                   : CM (complete main)\nDuration                         : 1h 28mn\nBit rate mode                    : Constant\nBit rate                         : 224 Kbps\nChannel(s)                       : 2 channels\nChannel positions                : Front: L R\nSampling rate                    : 48.0 KHz\nBit depth                        : 16 bits\nStream size                      : 142 MiB (3%)\n*************************************************************\nEnjoy EE-Rel.NL\n","torrent":{"xt":"urn:btih:c870988d24616c958a4756ef3ea86c9b04549f17","amp;dn":"The+Holding+%282011%29+DvDSCR+DD2.0+NL+Subs+EE-Rel.NL","amp;tr":["udp%3A%2F%2Ftracker.openbittorrent.com%3A80","udp%3A%2F%2Fopen.demonii.com%3A1337","udp%3A%2F%2Ftracker.coppersurfer.tk%3A6969","udp%3A%2F%2Fexodus.desync.com%3A6969"],"infoHash":"c870988d24616c958a4756ef3ea86c9b04549f17","infoHashBuffer":{"type":"Buffer","data":[200,112,152,141,36,97,108,149,138,71,86,239,62,168,108,155,4,84,159,23]},"announce":[],"urlList":[]}}